<svg xmlns="http://www.w3.org/2000/svg" xmlns:xlink="http://www.w3.org/1999/xlink" width="150" zoomAndPan="magnify" viewBox="0 0 112.5 112.499997" height="150" preserveAspectRatio="xMidYMid meet" version="1.0"><defs><g/><clipPath id="63048a2c60"><path d="M 24.277344 18.101562 L 87.742188 18.101562 L 87.742188 73.355469 L 24.277344 73.355469 Z M 24.277344 18.101562 " clip-rule="nonzero"/></clipPath></defs><g fill="#223947" fill-opacity="1"><g transform="translate(19.248183, 90.34088)"><g><path d="M 0.90625 0 L 0.90625 -9 L 3.1875 -9 L 3.1875 0 Z M 0.90625 0 "/></g></g></g><g fill="#223947" fill-opacity="1"><g transform="translate(25.124885, 90.34088)"><g><path d="M 7.296875 -9 L 9.578125 -9 L 9.578125 0 L 7.171875 0 L 3.125 -5.515625 L 3.125 0 L 0.828125 0 L 0.828125 -9 L 3.21875 -9 L 7.296875 -3.5 Z M 7.296875 -9 "/></g></g></g><g fill="#223947" fill-opacity="1"><g transform="translate(37.326913, 90.34088)"><g><path d="M 5.125 0.125 C 4.488281 0.125 3.890625 0.00390625 3.328125 -0.234375 C 2.765625 -0.472656 2.273438 -0.804688 1.859375 -1.234375 C 1.441406 -1.660156 1.113281 -2.148438 0.875 -2.703125 C 0.632812 -3.265625 0.515625 -3.863281 0.515625 -4.5 C 0.515625 -5.132812 0.632812 -5.726562 0.875 -6.28125 C 1.113281 -6.84375 1.441406 -7.335938 1.859375 -7.765625 C 2.273438 -8.191406 2.765625 -8.523438 3.328125 -8.765625 C 3.890625 -9.003906 4.488281 -9.125 5.125 -9.125 C 6.019531 -9.125 6.832031 -8.890625 7.5625 -8.421875 C 8.300781 -7.953125 8.859375 -7.34375 9.234375 -6.59375 L 7.265625 -5.59375 C 7.066406 -5.988281 6.78125 -6.300781 6.40625 -6.53125 C 6.03125 -6.757812 5.601562 -6.875 5.125 -6.875 C 4.675781 -6.875 4.269531 -6.769531 3.90625 -6.5625 C 3.550781 -6.351562 3.269531 -6.070312 3.0625 -5.71875 C 2.851562 -5.363281 2.75 -4.957031 2.75 -4.5 C 2.75 -4.050781 2.851562 -3.644531 3.0625 -3.28125 C 3.269531 -2.925781 3.550781 -2.644531 3.90625 -2.4375 C 4.269531 -2.226562 4.675781 -2.125 5.125 -2.125 C 5.601562 -2.125 6.03125 -2.238281 6.40625 -2.46875 C 6.78125 -2.695312 7.066406 -3.007812 7.265625 -3.40625 L 9.234375 -2.40625 C 8.859375 -1.65625 8.300781 -1.046875 7.5625 -0.578125 C 6.832031 -0.109375 6.019531 0.125 5.125 0.125 Z M 5.125 0.125 "/></g></g></g><g fill="#223947" fill-opacity="1"><g transform="translate(48.719539, 90.34088)"><g><path d="M 0.90625 0 L 0.90625 -9 L 3.1875 -9 L 3.1875 0 Z M 0.90625 0 "/></g></g></g><g fill="#223947" fill-opacity="1"><g transform="translate(54.59624, 90.34088)"><g><path d="M 0.828125 0 L 0.828125 -9 L 3.9375 -9 C 4.5625 -9 5.144531 -8.878906 5.6875 -8.640625 C 6.238281 -8.410156 6.71875 -8.085938 7.125 -7.671875 C 7.53125 -7.265625 7.847656 -6.789062 8.078125 -6.25 C 8.316406 -5.707031 8.4375 -5.125 8.4375 -4.5 C 8.4375 -3.875 8.316406 -3.289062 8.078125 -2.75 C 7.847656 -2.207031 7.53125 -1.726562 7.125 -1.3125 C 6.71875 -0.90625 6.238281 -0.582031 5.6875 -0.34375 C 5.144531 -0.113281 4.5625 0 3.9375 0 Z M 3.125 -2 L 3.9375 -2 C 4.363281 -2 4.742188 -2.109375 5.078125 -2.328125 C 5.410156 -2.546875 5.675781 -2.84375 5.875 -3.21875 C 6.070312 -3.601562 6.171875 -4.03125 6.171875 -4.5 C 6.171875 -4.96875 6.070312 -5.390625 5.875 -5.765625 C 5.675781 -6.148438 5.410156 -6.453125 5.078125 -6.671875 C 4.742188 -6.890625 4.363281 -7 3.9375 -7 L 3.125 -7 Z M 3.125 -2 "/></g></g></g><g fill="#223947" fill-opacity="1"><g transform="translate(65.344344, 90.34088)"><g><path d="M 6.484375 -7 L 3.1875 -7 L 3.1875 -5.484375 L 5.96875 -5.484375 L 5.96875 -3.515625 L 3.1875 -3.515625 L 3.1875 -2 L 6.484375 -2 L 6.484375 0 L 0.90625 0 L 0.90625 -9 L 6.484375 -9 Z M 6.484375 -7 "/></g></g></g><g fill="#223947" fill-opacity="1"><g transform="translate(74.128899, 90.34088)"><g><path d="M 7.296875 -9 L 9.578125 -9 L 9.578125 0 L 7.171875 0 L 3.125 -5.515625 L 3.125 0 L 0.828125 0 L 0.828125 -9 L 3.21875 -9 L 7.296875 -3.5 Z M 7.296875 -9 "/></g></g></g><g fill="#223947" fill-opacity="1"><g transform="translate(86.330927, 90.34088)"><g><path d="M 6.5625 -9 L 6.5625 -7 L 4.34375 -7 L 4.34375 0 L 2.0625 0 L 2.0625 -7 L -0.140625 -7 L -0.140625 -9 Z M 6.5625 -9 "/></g></g></g><g clip-path="url(#63048a2c60)"><path fill="#223947" d="M 53.554688 23.742188 L 56 27.984375 L 58.445312 23.742188 L 77.960938 23.742188 L 74.710938 29.378906 L 65.757812 44.886719 L 62.507812 50.519531 L 59.253906 56.15625 L 56 61.789062 L 52.75 56.15625 L 49.496094 50.519531 L 37.285156 29.378906 L 34.035156 23.742188 L 30.78125 18.109375 L 24.277344 18.109375 L 27.527344 23.742188 L 30.78125 29.378906 L 46.242188 56.15625 L 52.75 67.421875 L 56 73.058594 L 59.253906 67.421875 L 62.507812 61.789062 L 65.757812 56.15625 L 69.011719 50.519531 L 81.214844 29.378906 L 84.46875 23.742188 L 87.71875 18.109375 L 50.304688 18.109375 Z M 47.042969 23.742188 L 43.792969 18.109375 L 37.285156 18.109375 L 40.539062 23.742188 L 43.792969 29.378906 L 52.75 44.886719 L 56 50.519531 L 59.253906 44.886719 L 62.507812 39.25 L 68.203125 29.378906 L 61.699219 29.378906 L 59.253906 33.617188 L 56 39.25 L 50.304688 29.378906 Z M 65.757812 56.15625 L 62.507812 50.519531 Z M 65.757812 56.15625 " fill-opacity="1" fill-rule="evenodd"/></g></svg>