<svg xmlns="http://www.w3.org/2000/svg" xmlns:xlink="http://www.w3.org/1999/xlink" width="640" zoomAndPan="magnify" viewBox="0 0 480 269.999989" height="360" preserveAspectRatio="xMidYMid meet" version="1.0"><defs><g/><clipPath id="cc4579405a"><rect x="0" width="239" y="0" height="47"/></clipPath><clipPath id="50d0670079"><path d="M 27 72.714844 L 171 72.714844 L 171 197.214844 L 27 197.214844 Z M 27 72.714844 " clip-rule="nonzero"/></clipPath></defs><g transform="matrix(1, 0, 0, 1, 195, 111)"><g clip-path="url(#cc4579405a)"><g fill="#223947" fill-opacity="1"><g transform="translate(1.147751, 33.991817)"><g><path d="M 2.828125 0 L 2.828125 -28.34375 L 10.0625 -28.34375 L 10.0625 0 Z M 2.828125 0 "/></g></g></g><g fill="#223947" fill-opacity="1"><g transform="translate(19.656299, 33.991817)"><g><path d="M 22.953125 -28.34375 L 30.171875 -28.34375 L 30.171875 0 L 22.578125 0 L 9.828125 -17.375 L 9.828125 0 L 2.59375 0 L 2.59375 -28.34375 L 10.15625 -28.34375 L 22.953125 -11 Z M 22.953125 -28.34375 "/></g></g></g><g fill="#223947" fill-opacity="1"><g transform="translate(58.086347, 33.991817)"><g><path d="M 16.15625 0.375 C 14.132812 0.375 12.242188 0 10.484375 -0.75 C 8.722656 -1.507812 7.179688 -2.554688 5.859375 -3.890625 C 4.535156 -5.234375 3.492188 -6.773438 2.734375 -8.515625 C 1.984375 -10.265625 1.609375 -12.148438 1.609375 -14.171875 C 1.609375 -16.179688 1.984375 -18.0625 2.734375 -19.8125 C 3.492188 -21.5625 4.535156 -23.101562 5.859375 -24.4375 C 7.179688 -25.78125 8.722656 -26.828125 10.484375 -27.578125 C 12.242188 -28.335938 14.132812 -28.71875 16.15625 -28.71875 C 18.957031 -28.71875 21.515625 -27.984375 23.828125 -26.515625 C 26.140625 -25.054688 27.894531 -23.144531 29.09375 -20.78125 L 22.859375 -17.609375 C 22.253906 -18.835938 21.363281 -19.8125 20.1875 -20.53125 C 19.007812 -21.257812 17.664062 -21.625 16.15625 -21.625 C 14.738281 -21.625 13.460938 -21.300781 12.328125 -20.65625 C 11.191406 -20.007812 10.289062 -19.128906 9.625 -18.015625 C 8.96875 -16.898438 8.640625 -15.617188 8.640625 -14.171875 C 8.640625 -12.753906 8.96875 -11.476562 9.625 -10.34375 C 10.289062 -9.207031 11.191406 -8.316406 12.328125 -7.671875 C 13.460938 -7.023438 14.738281 -6.703125 16.15625 -6.703125 C 17.664062 -6.703125 19.007812 -7.0625 20.1875 -7.78125 C 21.363281 -8.507812 22.253906 -9.488281 22.859375 -10.71875 L 29.09375 -7.5625 C 27.894531 -5.195312 26.140625 -3.28125 23.828125 -1.8125 C 21.515625 -0.351562 18.957031 0.375 16.15625 0.375 Z M 16.15625 0.375 "/></g></g></g><g fill="#223947" fill-opacity="1"><g transform="translate(93.967197, 33.991817)"><g><path d="M 2.828125 0 L 2.828125 -28.34375 L 10.0625 -28.34375 L 10.0625 0 Z M 2.828125 0 "/></g></g></g><g fill="#223947" fill-opacity="1"><g transform="translate(112.475745, 33.991817)"><g><path d="M 2.59375 0 L 2.59375 -28.34375 L 12.421875 -28.34375 C 14.367188 -28.34375 16.203125 -27.96875 17.921875 -27.21875 C 19.640625 -26.476562 21.144531 -25.460938 22.4375 -24.171875 C 23.726562 -22.890625 24.742188 -21.390625 25.484375 -19.671875 C 26.222656 -17.953125 26.59375 -16.117188 26.59375 -14.171875 C 26.59375 -12.210938 26.222656 -10.375 25.484375 -8.65625 C 24.742188 -6.945312 23.726562 -5.445312 22.4375 -4.15625 C 21.144531 -2.863281 19.640625 -1.847656 17.921875 -1.109375 C 16.203125 -0.367188 14.367188 0 12.421875 0 Z M 9.828125 -6.28125 L 12.421875 -6.28125 C 13.742188 -6.28125 14.929688 -6.625 15.984375 -7.3125 C 17.035156 -8.007812 17.867188 -8.957031 18.484375 -10.15625 C 19.097656 -11.351562 19.40625 -12.691406 19.40625 -14.171875 C 19.40625 -15.648438 19.097656 -16.988281 18.484375 -18.1875 C 17.867188 -19.382812 17.035156 -20.328125 15.984375 -21.015625 C 14.929688 -21.710938 13.742188 -22.0625 12.421875 -22.0625 L 9.828125 -22.0625 Z M 9.828125 -6.28125 "/></g></g></g><g fill="#223947" fill-opacity="1"><g transform="translate(146.326686, 33.991817)"><g><path d="M 20.40625 -22.0625 L 10.0625 -22.0625 L 10.0625 -17.28125 L 18.796875 -17.28125 L 18.796875 -11.046875 L 10.0625 -11.046875 L 10.0625 -6.28125 L 20.40625 -6.28125 L 20.40625 0 L 2.828125 0 L 2.828125 -28.34375 L 20.40625 -28.34375 Z M 20.40625 -22.0625 "/></g></g></g><g fill="#223947" fill-opacity="1"><g transform="translate(173.993465, 33.991817)"><g><path d="M 22.953125 -28.34375 L 30.171875 -28.34375 L 30.171875 0 L 22.578125 0 L 9.828125 -17.375 L 9.828125 0 L 2.59375 0 L 2.59375 -28.34375 L 10.15625 -28.34375 L 22.953125 -11 Z M 22.953125 -28.34375 "/></g></g></g><g fill="#223947" fill-opacity="1"><g transform="translate(212.423513, 33.991817)"><g><path d="M 20.640625 -28.34375 L 20.640625 -22.0625 L 13.703125 -22.0625 L 13.703125 0 L 6.515625 0 L 6.515625 -22.0625 L -0.421875 -22.0625 L -0.421875 -28.34375 Z M 20.640625 -28.34375 "/></g></g></g></g></g><g clip-path="url(#50d0670079)"><path fill="#223947" d="M 93.363281 85.496094 L 98.90625 95.101562 L 104.453125 85.496094 L 148.683594 85.496094 L 141.3125 98.265625 L 121.023438 133.414062 L 113.652344 146.183594 L 106.28125 158.957031 L 98.90625 171.726562 L 91.535156 158.957031 L 84.164062 146.183594 L 56.488281 98.265625 L 49.117188 85.496094 L 41.746094 72.722656 L 27 72.722656 L 34.371094 85.496094 L 41.746094 98.265625 L 76.792969 158.957031 L 98.90625 197.265625 L 106.28125 184.496094 L 121.023438 158.957031 L 128.394531 146.183594 L 156.054688 98.265625 L 163.429688 85.496094 L 170.800781 72.722656 L 85.992188 72.722656 Z M 78.605469 85.496094 L 71.234375 72.722656 L 56.488281 72.722656 L 63.859375 85.496094 L 71.234375 98.265625 L 91.535156 133.414062 L 98.90625 146.183594 L 106.28125 133.414062 L 113.652344 120.644531 L 126.566406 98.265625 L 111.824219 98.265625 L 106.28125 107.871094 L 98.90625 120.644531 L 85.992188 98.265625 Z M 121.023438 158.957031 L 113.652344 146.183594 Z M 121.023438 158.957031 " fill-opacity="1" fill-rule="evenodd"/></g></svg>