<svg xmlns="http://www.w3.org/2000/svg" xmlns:xlink="http://www.w3.org/1999/xlink" width="150" zoomAndPan="magnify" viewBox="0 0 112.5 112.499997" height="150" preserveAspectRatio="xMidYMid meet" version="1.0"><defs><clipPath id="8856fefdc3"><path d="M 11.199219 17.191406 L 100.800781 17.191406 L 100.800781 94.847656 L 11.199219 94.847656 Z M 11.199219 17.191406 " clip-rule="nonzero"/></clipPath></defs><g clip-path="url(#8856fefdc3)"><path fill="#ffffff" d="M 52.550781 25.152344 L 56.003906 31.140625 L 59.460938 25.152344 L 87.019531 25.152344 L 82.425781 33.109375 L 69.785156 55.011719 L 56.003906 78.882812 L 51.410156 70.925781 L 46.820312 62.96875 L 29.574219 33.109375 L 20.386719 17.195312 L 11.199219 17.195312 L 20.386719 33.109375 L 42.226562 70.925781 L 46.820312 78.882812 L 51.410156 86.839844 L 56.003906 94.796875 L 74.378906 62.96875 L 91.613281 33.109375 L 100.800781 17.195312 L 47.957031 17.195312 Z M 43.355469 25.152344 L 38.761719 17.195312 L 29.574219 17.195312 L 38.761719 33.109375 L 51.410156 55.011719 L 56.003906 62.96875 L 65.191406 47.054688 L 73.242188 33.109375 L 64.054688 33.109375 L 60.597656 39.097656 L 56.003906 47.054688 L 47.957031 33.109375 Z M 69.785156 70.925781 L 65.191406 62.96875 Z M 69.785156 70.925781 " fill-opacity="1" fill-rule="evenodd"/></g></svg>